#N canvas 509 258 450 300 10;
#X obj 83 29 inlet;
#X obj 83 195 s gpio\$1;
#X msg 153 143 open 1;
#X msg 83 113 enable 1;
#X obj 83 51 t b b b b;
#X msg 212 143 output 0;
#X obj 153 195 outlet;
#X obj 153 121 del 100;
#X obj 212 121 del 100;
#X connect 0 0 4 0;
#X connect 2 0 1 0;
#X connect 2 0 6 0;
#X connect 3 0 1 0;
#X connect 3 0 6 0;
#X connect 4 0 1 0;
#X connect 4 1 8 0;
#X connect 4 2 7 0;
#X connect 4 3 3 0;
#X connect 5 0 1 0;
#X connect 5 0 6 0;
#X connect 7 0 2 0;
#X connect 8 0 5 0;
