#N canvas 768 327 661 363 10;
#X obj 20 47 del 100;
#X msg 20 99 \; pd dsp 1 \;;
#X obj 150 353 dac~;
#X obj 150 221 readsf~ 2;
#X obj 110 253 env~;
#X floatatom 110 275 5 0 0 0 - - -;
#X obj 501 112 bng 15 250 50 0 empty empty empty 17 7 0 10 -262144
-1 -1;
#X obj 501 235 tgl 15 0 empty empty empty 17 7 0 10 -262144 -1 -1 0
1;
#X obj 426 162 metro 50;
#X obj 426 185 bng 15 250 50 0 empty empty empty 17 7 0 10 -262144
-1 -1;
#X obj 501 132 src/setGpioIn 8;
#X obj 501 154 s gpio8;
#X obj 501 189 r gpio8;
#X obj 501 210 gpio 8;
#X obj 426 56 del 100;
#X obj 426 118 del 100;
#X msg 426 140 1;
#X obj 261 15 change;
#X obj 261 -5 r sensorValue;
#X obj 501 255 s sensorValue;
#X obj 110 334 env~;
#X floatatom 110 356 5 0 0 0 - - -;
#X obj 261 111 line;
#X msg 261 69 1 50;
#X msg 284 89 0 5000;
#X obj 20 25 loadbang;
#X obj 150 313 *~ 1;
#X obj 180 333 *~ 1;
#X msg 150 199 open ../../sons/domicile.wav \, 1;
#X obj 261 37 sel 1 0;
#X obj 261 133 sel 0;
#X msg 271 155 stop;
#X obj 426 34 //loadbang;
#X obj 138 97 metro 90000;
#X msg 89 70 1;
#X connect 0 0 1 0;
#X connect 0 0 34 0;
#X connect 3 0 4 0;
#X connect 3 0 26 0;
#X connect 3 1 27 0;
#X connect 4 0 5 0;
#X connect 6 0 10 0;
#X connect 7 0 19 0;
#X connect 8 0 9 0;
#X connect 9 0 13 0;
#X connect 10 0 11 0;
#X connect 12 0 13 0;
#X connect 13 0 7 0;
#X connect 14 0 6 0;
#X connect 14 0 15 0;
#X connect 15 0 16 0;
#X connect 16 0 8 0;
#X connect 17 0 29 0;
#X connect 18 0 17 0;
#X connect 20 0 21 0;
#X connect 22 0 30 0;
#X connect 23 0 22 0;
#X connect 24 0 22 0;
#X connect 25 0 0 0;
#X connect 26 0 2 0;
#X connect 26 0 20 0;
#X connect 27 0 2 1;
#X connect 28 0 3 0;
#X connect 29 0 23 0;
#X connect 29 1 24 0;
#X connect 30 0 31 0;
#X connect 32 0 14 0;
#X connect 33 0 28 0;
#X connect 34 0 33 0;
