#N canvas 337 172 450 300 10;
#X obj 74 72 bng 15 250 50 0 empty empty empty 17 7 0 10 -262144 -1
-1;
#X obj 74 92 ./src/setGpioIn 22;
#X obj 74 114 s gpio22;
#X obj 82 162 r gpio22;
#X obj 82 184 gpio 22;
#X obj 82 206 tgl 15 0 empty empty empty 17 7 0 10 -262144 -1 -1 0
1;
#X obj 62 184 tgl 15 0 empty empty empty 17 7 0 10 -262144 -1 -1 0
1;
#X connect 0 0 1 0;
#X connect 1 0 2 0;
#X connect 3 0 4 0;
#X connect 4 0 5 0;
#X connect 6 0 4 0;
