#N canvas 551 109 558 513 10;
#X declare -lib mrpeach;
#X obj 29 34 loadbang;
#X msg 29 115 \; pd dsp 1 \;;
#X obj 29 54 del 100;
#X obj 139 34 import mrpeach;
#X obj 399 54 udpreceive 1234;
#X obj 399 74 unpackOSC;
#X obj 399 97 route /input0;
#X obj 134 151 readsf~ 2;
#X obj 134 498 dac~;
#X msg 134 126 open ../../sons/hurler.wav \, 1;
#X obj 134 373 clip~ -1 1;
#X floatatom 446 179 5 0 0 0 - - -;
#X obj 135 344 *~;
#X obj 429 149 / 30;
#X floatatom 473 146 5 0 0 0 - - -;
#X obj 134 416 lop~ 0;
#X obj 134 436 lop~ 0;
#X obj 399 216 moses 400;
#X obj 399 238 / 400;
#X floatatom 399 288 7 0 0 0 - - -;
#X msg 280 279 1;
#X obj 450 238 - 400;
#X obj 450 258 / 623;
#X obj 450 278 * 20;
#X obj 450 298 + 1;
#X obj 134 456 lop~ 0;
#X obj 399 259 * 10000;
#X obj 204 373 clip~ -1 1;
#X obj 205 344 *~;
#X obj 204 416 lop~ 0;
#X obj 204 436 lop~ 0;
#X obj 204 456 lop~ 0;
#X connect 0 0 2 0;
#X connect 2 0 1 0;
#X connect 2 0 9 0;
#X connect 4 0 5 0;
#X connect 5 0 6 0;
#X connect 6 0 13 0;
#X connect 6 0 14 0;
#X connect 6 0 17 0;
#X connect 7 0 12 0;
#X connect 7 1 28 0;
#X connect 7 2 9 0;
#X connect 9 0 7 0;
#X connect 10 0 15 0;
#X connect 12 0 10 0;
#X connect 13 0 11 0;
#X connect 15 0 16 0;
#X connect 16 0 25 0;
#X connect 17 0 18 0;
#X connect 17 0 20 0;
#X connect 17 1 21 0;
#X connect 18 0 26 0;
#X connect 20 0 12 1;
#X connect 20 0 28 1;
#X connect 21 0 22 0;
#X connect 22 0 23 0;
#X connect 23 0 24 0;
#X connect 24 0 12 1;
#X connect 24 0 28 1;
#X connect 25 0 8 0;
#X connect 26 0 15 1;
#X connect 26 0 16 1;
#X connect 26 0 19 0;
#X connect 26 0 25 1;
#X connect 26 0 29 1;
#X connect 26 0 30 1;
#X connect 26 0 31 1;
#X connect 27 0 29 0;
#X connect 28 0 27 0;
#X connect 29 0 30 0;
#X connect 30 0 31 0;
#X connect 31 0 8 1;
