#N canvas 591 210 450 300 10;
#X obj 38 29 loadbang;
#X obj 38 61 del 100;
#X msg 38 83 \; pd dsp 1 \;;
#X msg 163 84 open ../../sons/jeu.wav \, 1;
#X obj 163 148 *~ 1;
#X obj 163 190 dac~;
#X obj 163 106 readsf~ 2;
#X obj 193 168 *~ 1;
#X obj 223 128 del 30000;
#X msg 345 184 devices;
#X obj 320 250 print;
#X obj 320 228 comport 1 9600;
#X connect 0 0 1 0;
#X connect 1 0 2 0;
#X connect 1 0 3 0;
#X connect 3 0 6 0;
#X connect 4 0 5 0;
#X connect 6 0 4 0;
#X connect 6 1 7 0;
#X connect 6 2 8 0;
#X connect 7 0 5 1;
#X connect 8 0 3 0;
#X connect 9 0 11 0;
#X connect 11 0 10 0;
