#N canvas 625 191 450 300 10;
#X obj 34 57 delay 100;
#X msg 34 129 \; pd dsp 1 \;;
#X obj 215 139 readsf~ 2;
#X obj 171 211 env~;
#X floatatom 171 233 5 0 0 0 - - -, f 5;
#X obj 44 77 delay 100;
#X obj 215 211 dac~;
#X msg 215 117 open ../../sons/opera.wav \, 1;
#X obj 34 35 loadbang;
#X obj 236 189 readsf~ 2;
#X msg 236 167 open ../../sons/castafiore.wav \, 1;
#X obj 251 211 env~;
#X floatatom 251 233 5 0 0 0 - - -, f 5;
#X connect 0 0 1 0;
#X connect 0 0 5 0;
#X connect 2 0 3 0;
#X connect 2 0 6 0;
#X connect 2 2 7 0;
#X connect 3 0 4 0;
#X connect 5 0 7 0;
#X connect 5 0 10 0;
#X connect 7 0 2 0;
#X connect 8 0 0 0;
#X connect 9 0 6 1;
#X connect 9 0 11 0;
#X connect 9 2 10 0;
#X connect 10 0 9 0;
#X connect 11 0 12 0;
