#N canvas 628 193 450 300 10;
#X obj 34 35 loadbang;
#X obj 34 57 delay 100;
#X msg 34 129 \; pd dsp 1 \;;
#X obj 215 139 readsf~ 2;
#X obj 171 161 env~;
#X floatatom 171 183 5 0 0 0 - - -;
#X msg 215 117 open ../../sons/sante.wav \, 1;
#X obj 44 77 delay 100;
#X obj 215 161 dac~;
#X connect 0 0 1 0;
#X connect 1 0 2 0;
#X connect 1 0 7 0;
#X connect 3 0 4 0;
#X connect 3 0 8 0;
#X connect 3 1 8 1;
#X connect 3 2 6 0;
#X connect 4 0 5 0;
#X connect 6 0 3 0;
#X connect 7 0 6 0;
