#N canvas 818 146 574 628 10;
#X obj 47 40 loadbang;
#X msg 47 79 \; pd dsp 1 \;;
#X obj 137 80 delay 100;
#X obj 367 203 readsf~ 2;
#X msg 367 173 open ../../ABCDerres_sons/xenophobie.wav \, 1;
#X obj 137 191 hid;
#X obj 137 211 route key;
#X obj 137 232 route btn_0;
#X msg 137 172 open 0 \, poll 100;
#X obj 367 593 dac~;
#X obj 367 563 *~ 0;
#X obj 397 563 *~ 0;
#X obj 137 252 sel 1;
#X msg 285 444 0 5000;
#X obj 265 517 line;
#X obj 147 280 print click;
#X msg 265 424 \$1 50;
#X obj 137 382 t b f;
#X obj 137 422 delay 50;
#X floatatom 228 350 5 0 0 0 - - -;
#X obj 137 323 + 0;
#X obj 265 546 s actualLevel;
#X obj 175 303 r actualLevel;
#X floatatom 196 562 5 0 0 0 - - -;
#X obj 137 342 clip 0 1;
#X msg 137 304 0.2;
#X connect 0 0 1 0;
#X connect 0 0 2 0;
#X connect 2 0 4 0;
#X connect 2 0 8 0;
#X connect 3 0 10 0;
#X connect 3 1 11 0;
#X connect 3 2 4 0;
#X connect 4 0 3 0;
#X connect 5 0 6 0;
#X connect 6 0 7 0;
#X connect 7 0 12 0;
#X connect 8 0 5 0;
#X connect 10 0 9 0;
#X connect 11 0 9 1;
#X connect 12 0 15 0;
#X connect 12 0 25 0;
#X connect 13 0 14 0;
#X connect 14 0 10 1;
#X connect 14 0 11 1;
#X connect 14 0 21 0;
#X connect 14 0 23 0;
#X connect 16 0 14 0;
#X connect 17 0 18 0;
#X connect 17 1 16 0;
#X connect 18 0 13 0;
#X connect 20 0 19 0;
#X connect 20 0 24 0;
#X connect 22 0 20 1;
#X connect 24 0 17 0;
#X connect 25 0 20 0;
